<svg xmlns="http://www.w3.org/2000/svg" xmlns:xlink="http://www.w3.org/1999/xlink" width="500" zoomAndPan="magnify" viewBox="0 0 375 374.999991" height="500" preserveAspectRatio="xMidYMid meet" version="1.0"><defs><g/><clipPath id="287f70ebac"><path d="M 27 118.457031 L 348 118.457031 L 348 257 L 27 257 Z M 27 118.457031 " clip-rule="nonzero"/></clipPath><clipPath id="bf1faa3bc4"><path d="M 334.800781 222.019531 C 315.128906 243.988281 287.039062 256.542969 257.554688 256.542969 L 117.445312 256.542969 C 87.960938 256.542969 59.871094 243.988281 40.199219 222.019531 C 22.605469 202.371094 22.605469 172.628906 40.199219 152.980469 C 59.871094 131.011719 87.960938 118.457031 117.445312 118.457031 L 257.554688 118.457031 C 287.039062 118.457031 315.128906 131.011719 334.800781 152.980469 C 352.394531 172.628906 352.394531 202.371094 334.800781 222.019531 " clip-rule="nonzero"/></clipPath><clipPath id="07ccf7d7f7"><path d="M 65 152 L 151 152 L 151 227.335938 L 65 227.335938 Z M 65 152 " clip-rule="nonzero"/></clipPath><clipPath id="9f2943bbb9"><path d="M 48.449219 139.585938 L 159.449219 139.585938 L 159.449219 195 L 48.449219 195 Z M 48.449219 139.585938 " clip-rule="nonzero"/></clipPath></defs><g clip-path="url(#287f70ebac)"><g clip-path="url(#bf1faa3bc4)"><path fill="#716672" d="M 9.292969 118.457031 L 364.742188 118.457031 L 364.742188 257.546875 L 9.292969 257.546875 Z M 9.292969 118.457031 " fill-opacity="1" fill-rule="nonzero"/></g></g><g fill="#ffffff" fill-opacity="1"><g transform="translate(172.77121, 181.523806)"><g><path d="M 14.578125 -1.6875 C 13.722656 -1 12.816406 -0.507812 11.859375 -0.21875 C 10.898438 0.0703125 9.867188 0.21875 8.765625 0.21875 C 7.453125 0.21875 6.269531 -0.046875 5.21875 -0.578125 C 4.175781 -1.109375 3.289062 -1.828125 2.5625 -2.734375 C 1.832031 -3.648438 1.273438 -4.710938 0.890625 -5.921875 C 0.503906 -7.140625 0.3125 -8.429688 0.3125 -9.796875 C 0.3125 -11.078125 0.484375 -12.296875 0.828125 -13.453125 C 1.171875 -14.609375 1.703125 -15.617188 2.421875 -16.484375 C 3.140625 -17.359375 4.046875 -18.050781 5.140625 -18.5625 C 6.242188 -19.070312 7.539062 -19.328125 9.03125 -19.328125 C 10.125 -19.328125 11.171875 -19.140625 12.171875 -18.765625 C 13.171875 -18.390625 14.046875 -17.84375 14.796875 -17.125 L 12.90625 -14.90625 C 12.625 -15.09375 12.328125 -15.269531 12.015625 -15.4375 C 11.710938 -15.613281 11.398438 -15.765625 11.078125 -15.890625 C 10.765625 -16.015625 10.453125 -16.113281 10.140625 -16.1875 C 9.828125 -16.269531 9.523438 -16.3125 9.234375 -16.3125 C 8.429688 -16.3125 7.742188 -16.140625 7.171875 -15.796875 C 6.609375 -15.453125 6.148438 -14.984375 5.796875 -14.390625 C 5.441406 -13.796875 5.179688 -13.109375 5.015625 -12.328125 C 4.847656 -11.546875 4.765625 -10.71875 4.765625 -9.84375 C 4.765625 -9.320312 4.800781 -8.785156 4.875 -8.234375 C 4.945312 -7.691406 5.054688 -7.15625 5.203125 -6.625 C 5.347656 -6.101562 5.535156 -5.613281 5.765625 -5.15625 C 6.003906 -4.695312 6.28125 -4.289062 6.59375 -3.9375 C 6.914062 -3.59375 7.28125 -3.316406 7.6875 -3.109375 C 8.101562 -2.910156 8.566406 -2.8125 9.078125 -2.8125 C 9.359375 -2.8125 9.640625 -2.832031 9.921875 -2.875 C 10.203125 -2.925781 10.5 -3.003906 10.8125 -3.109375 C 11.125 -3.222656 11.460938 -3.363281 11.828125 -3.53125 C 12.191406 -3.707031 12.601562 -3.921875 13.0625 -4.171875 Z M 14.578125 -1.6875 "/></g></g></g><g fill="#ffffff" fill-opacity="1"><g transform="translate(188.057231, 181.523806)"><g><path d="M 16.4375 -19.109375 L 11.21875 -2.59375 L 10.84375 0.3125 L 5.875 -0.0625 L -0.203125 -19.015625 L 3.90625 -19.4375 L 7.125 -8.921875 L 8.328125 -3.3125 L 9.203125 -8.921875 L 12.359375 -19.109375 Z M 16.4375 -19.109375 "/></g></g></g><g fill="#ffffff" fill-opacity="1"><g transform="translate(172.77121, 207.023804)"><g><path d="M 11.75 -10.1875 L 15.921875 -19.046875 L 20.390625 -19.4375 L 20.390625 0 L 16.171875 0 L 16.171875 -7.015625 L 16.75 -13.5 L 16.671875 -13.515625 L 14.59375 -7.40625 L 11.828125 -1.5625 L 9.5 -1.5625 L 6.953125 -6.828125 L 4.796875 -13.5 L 4.734375 -13.5 L 5.375 -6.34375 L 5.375 0 L 1.28125 0 L 1.28125 -16.09375 L 0.890625 -19.03125 L 5.46875 -19.421875 L 9.84375 -10.203125 L 10.8125 -6.34375 Z M 11.75 -10.1875 "/></g></g></g><g fill="#ffffff" fill-opacity="1"><g transform="translate(195.700236, 207.023804)"><g><path d="M 12.390625 0 L 8.078125 0 L 8.078125 -2.0625 L 6.546875 0.15625 C 6.484375 0.164062 6.40625 0.175781 6.3125 0.1875 C 6.21875 0.207031 6.082031 0.21875 5.90625 0.21875 C 5.164062 0.21875 4.46875 0.113281 3.8125 -0.09375 C 3.164062 -0.300781 2.59375 -0.609375 2.09375 -1.015625 C 1.601562 -1.421875 1.210938 -1.921875 0.921875 -2.515625 C 0.628906 -3.109375 0.484375 -3.789062 0.484375 -4.5625 C 0.484375 -5.101562 0.5625 -5.59375 0.71875 -6.03125 C 0.882812 -6.476562 1.109375 -6.875 1.390625 -7.21875 C 1.679688 -7.570312 2.007812 -7.875 2.375 -8.125 C 2.75 -8.382812 3.148438 -8.597656 3.578125 -8.765625 C 4.015625 -8.929688 4.457031 -9.050781 4.90625 -9.125 C 5.363281 -9.207031 5.8125 -9.25 6.25 -9.25 C 6.625 -9.25 6.960938 -9.234375 7.265625 -9.203125 C 7.566406 -9.179688 7.832031 -9.148438 8.0625 -9.109375 C 8.050781 -9.453125 8.023438 -9.765625 7.984375 -10.046875 C 7.941406 -10.328125 7.863281 -10.570312 7.75 -10.78125 C 7.644531 -11 7.5 -11.164062 7.3125 -11.28125 C 7.125 -11.40625 6.882812 -11.46875 6.59375 -11.46875 C 5.875 -11.46875 5.179688 -11.382812 4.515625 -11.21875 C 3.859375 -11.050781 3.265625 -10.867188 2.734375 -10.671875 L 1.40625 -13.03125 C 2.0625 -13.332031 2.707031 -13.570312 3.34375 -13.75 C 3.757812 -13.863281 4.242188 -13.972656 4.796875 -14.078125 C 5.347656 -14.179688 5.988281 -14.234375 6.71875 -14.234375 C 7.820312 -14.234375 8.722656 -14.097656 9.421875 -13.828125 C 10.117188 -13.566406 10.664062 -13.191406 11.0625 -12.703125 C 11.457031 -12.210938 11.726562 -11.625 11.875 -10.9375 C 12.03125 -10.25 12.109375 -9.492188 12.109375 -8.671875 L 12.109375 -2.609375 Z M 8.078125 -6.5625 C 7.867188 -6.582031 7.644531 -6.601562 7.40625 -6.625 C 7.164062 -6.65625 6.9375 -6.671875 6.71875 -6.671875 C 6.40625 -6.671875 6.101562 -6.625 5.8125 -6.53125 C 5.519531 -6.445312 5.257812 -6.320312 5.03125 -6.15625 C 4.800781 -5.988281 4.613281 -5.769531 4.46875 -5.5 C 4.320312 -5.238281 4.25 -4.929688 4.25 -4.578125 C 4.25 -4.285156 4.296875 -4.015625 4.390625 -3.765625 C 4.484375 -3.523438 4.609375 -3.3125 4.765625 -3.125 C 4.921875 -2.945312 5.09375 -2.804688 5.28125 -2.703125 C 5.46875 -2.597656 5.660156 -2.546875 5.859375 -2.546875 C 6.109375 -2.546875 6.34375 -2.582031 6.5625 -2.65625 C 6.789062 -2.738281 7 -2.835938 7.1875 -2.953125 C 7.382812 -3.066406 7.554688 -3.191406 7.703125 -3.328125 C 7.847656 -3.460938 7.972656 -3.582031 8.078125 -3.6875 Z M 8.078125 -6.5625 "/></g></g></g><g fill="#ffffff" fill-opacity="1"><g transform="translate(209.075495, 207.023804)"><g><path d="M 5.8125 -14.34375 L 5.8125 -11.9375 L 6.953125 -13.859375 C 7.222656 -13.953125 7.5 -14.035156 7.78125 -14.109375 C 8.070312 -14.191406 8.367188 -14.234375 8.671875 -14.234375 C 9.035156 -14.234375 9.390625 -14.222656 9.734375 -14.203125 C 10.078125 -14.179688 10.40625 -14.128906 10.71875 -14.046875 C 11.03125 -13.960938 11.328125 -13.84375 11.609375 -13.6875 C 11.890625 -13.53125 12.148438 -13.316406 12.390625 -13.046875 C 12.660156 -12.753906 12.863281 -12.4375 13 -12.09375 C 13.144531 -11.757812 13.25 -11.425781 13.3125 -11.09375 C 13.382812 -10.757812 13.425781 -10.429688 13.4375 -10.109375 C 13.445312 -9.796875 13.453125 -9.515625 13.453125 -9.265625 L 13.453125 0 L 9.296875 0 L 9.296875 -9.640625 C 9.296875 -9.992188 9.265625 -10.285156 9.203125 -10.515625 C 9.140625 -10.753906 9.050781 -10.941406 8.9375 -11.078125 C 8.832031 -11.222656 8.703125 -11.320312 8.546875 -11.375 C 8.390625 -11.4375 8.21875 -11.46875 8.03125 -11.46875 C 7.882812 -11.46875 7.71875 -11.441406 7.53125 -11.390625 C 7.351562 -11.335938 7.164062 -11.265625 6.96875 -11.171875 C 6.769531 -11.085938 6.570312 -10.976562 6.375 -10.84375 C 6.175781 -10.707031 5.988281 -10.554688 5.8125 -10.390625 L 5.8125 0 L 1.65625 0 L 1.65625 -13.921875 Z M 5.8125 -14.34375 "/></g></g></g><g fill="#ffffff" fill-opacity="1"><g transform="translate(224.361516, 207.023804)"><g><path d="M 12.390625 0 L 8.078125 0 L 8.078125 -2.0625 L 6.546875 0.15625 C 6.484375 0.164062 6.40625 0.175781 6.3125 0.1875 C 6.21875 0.207031 6.082031 0.21875 5.90625 0.21875 C 5.164062 0.21875 4.46875 0.113281 3.8125 -0.09375 C 3.164062 -0.300781 2.59375 -0.609375 2.09375 -1.015625 C 1.601562 -1.421875 1.210938 -1.921875 0.921875 -2.515625 C 0.628906 -3.109375 0.484375 -3.789062 0.484375 -4.5625 C 0.484375 -5.101562 0.5625 -5.59375 0.71875 -6.03125 C 0.882812 -6.476562 1.109375 -6.875 1.390625 -7.21875 C 1.679688 -7.570312 2.007812 -7.875 2.375 -8.125 C 2.75 -8.382812 3.148438 -8.597656 3.578125 -8.765625 C 4.015625 -8.929688 4.457031 -9.050781 4.90625 -9.125 C 5.363281 -9.207031 5.8125 -9.25 6.25 -9.25 C 6.625 -9.25 6.960938 -9.234375 7.265625 -9.203125 C 7.566406 -9.179688 7.832031 -9.148438 8.0625 -9.109375 C 8.050781 -9.453125 8.023438 -9.765625 7.984375 -10.046875 C 7.941406 -10.328125 7.863281 -10.570312 7.75 -10.78125 C 7.644531 -11 7.5 -11.164062 7.3125 -11.28125 C 7.125 -11.40625 6.882812 -11.46875 6.59375 -11.46875 C 5.875 -11.46875 5.179688 -11.382812 4.515625 -11.21875 C 3.859375 -11.050781 3.265625 -10.867188 2.734375 -10.671875 L 1.40625 -13.03125 C 2.0625 -13.332031 2.707031 -13.570312 3.34375 -13.75 C 3.757812 -13.863281 4.242188 -13.972656 4.796875 -14.078125 C 5.347656 -14.179688 5.988281 -14.234375 6.71875 -14.234375 C 7.820312 -14.234375 8.722656 -14.097656 9.421875 -13.828125 C 10.117188 -13.566406 10.664062 -13.191406 11.0625 -12.703125 C 11.457031 -12.210938 11.726562 -11.625 11.875 -10.9375 C 12.03125 -10.25 12.109375 -9.492188 12.109375 -8.671875 L 12.109375 -2.609375 Z M 8.078125 -6.5625 C 7.867188 -6.582031 7.644531 -6.601562 7.40625 -6.625 C 7.164062 -6.65625 6.9375 -6.671875 6.71875 -6.671875 C 6.40625 -6.671875 6.101562 -6.625 5.8125 -6.53125 C 5.519531 -6.445312 5.257812 -6.320312 5.03125 -6.15625 C 4.800781 -5.988281 4.613281 -5.769531 4.46875 -5.5 C 4.320312 -5.238281 4.25 -4.929688 4.25 -4.578125 C 4.25 -4.285156 4.296875 -4.015625 4.390625 -3.765625 C 4.484375 -3.523438 4.609375 -3.3125 4.765625 -3.125 C 4.921875 -2.945312 5.09375 -2.804688 5.28125 -2.703125 C 5.46875 -2.597656 5.660156 -2.546875 5.859375 -2.546875 C 6.109375 -2.546875 6.34375 -2.582031 6.5625 -2.65625 C 6.789062 -2.738281 7 -2.835938 7.1875 -2.953125 C 7.382812 -3.066406 7.554688 -3.191406 7.703125 -3.328125 C 7.847656 -3.460938 7.972656 -3.582031 8.078125 -3.6875 Z M 8.078125 -6.5625 "/></g></g></g><g fill="#ffffff" fill-opacity="1"><g transform="translate(237.736774, 207.023804)"><g><path d="M 9.265625 -0.203125 C 8.992188 -0.0859375 8.648438 0.0078125 8.234375 0.09375 C 7.828125 0.175781 7.375 0.21875 6.875 0.21875 C 6.019531 0.21875 5.222656 0.03125 4.484375 -0.34375 C 3.742188 -0.726562 3.101562 -1.242188 2.5625 -1.890625 C 2.019531 -2.535156 1.59375 -3.296875 1.28125 -4.171875 C 0.96875 -5.046875 0.8125 -5.96875 0.8125 -6.9375 C 0.8125 -7.9375 0.953125 -8.875 1.234375 -9.75 C 1.515625 -10.632812 1.929688 -11.410156 2.484375 -12.078125 C 3.035156 -12.742188 3.722656 -13.269531 4.546875 -13.65625 C 5.367188 -14.039062 6.328125 -14.234375 7.421875 -14.234375 C 7.578125 -14.234375 7.707031 -14.226562 7.8125 -14.21875 C 7.914062 -14.21875 8.007812 -14.207031 8.09375 -14.1875 L 9.25 -12.203125 L 9.25 -14.34375 L 13.40625 -13.921875 L 13.40625 0.515625 C 13.40625 1.359375 13.25 2.144531 12.9375 2.875 C 12.625 3.613281 12.175781 4.253906 11.59375 4.796875 C 11.019531 5.347656 10.316406 5.785156 9.484375 6.109375 C 8.660156 6.429688 7.722656 6.59375 6.671875 6.59375 C 6.109375 6.59375 5.601562 6.546875 5.15625 6.453125 C 4.707031 6.359375 4.289062 6.226562 3.90625 6.0625 C 3.53125 5.894531 3.171875 5.6875 2.828125 5.4375 C 2.492188 5.1875 2.160156 4.898438 1.828125 4.578125 L 3.671875 2.453125 C 3.804688 2.566406 3.984375 2.695312 4.203125 2.84375 C 4.421875 2.988281 4.664062 3.128906 4.9375 3.265625 C 5.207031 3.398438 5.492188 3.507812 5.796875 3.59375 C 6.097656 3.6875 6.390625 3.734375 6.671875 3.734375 C 7.035156 3.734375 7.375 3.644531 7.6875 3.46875 C 8 3.300781 8.269531 3.0625 8.5 2.75 C 8.738281 2.445312 8.925781 2.085938 9.0625 1.671875 C 9.195312 1.265625 9.265625 0.820312 9.265625 0.34375 Z M 9.25 -10.453125 C 9.007812 -10.722656 8.726562 -10.957031 8.40625 -11.15625 C 8.09375 -11.363281 7.742188 -11.46875 7.359375 -11.46875 C 6.847656 -11.46875 6.4375 -11.3125 6.125 -11 C 5.820312 -10.695312 5.582031 -10.3125 5.40625 -9.84375 C 5.226562 -9.382812 5.113281 -8.882812 5.0625 -8.34375 C 5.007812 -7.800781 4.984375 -7.285156 4.984375 -6.796875 C 4.984375 -6.203125 5.03125 -5.644531 5.125 -5.125 C 5.226562 -4.601562 5.375 -4.148438 5.5625 -3.765625 C 5.75 -3.390625 5.96875 -3.09375 6.21875 -2.875 C 6.46875 -2.65625 6.753906 -2.546875 7.078125 -2.546875 C 7.578125 -2.546875 7.992188 -2.648438 8.328125 -2.859375 C 8.671875 -3.078125 8.976562 -3.34375 9.25 -3.65625 Z M 9.25 -10.453125 "/></g></g></g><g fill="#ffffff" fill-opacity="1"><g transform="translate(253.022795, 207.023804)"><g><path d="M 12.765625 -2.015625 C 12.453125 -1.691406 12.113281 -1.394531 11.75 -1.125 C 11.382812 -0.851562 10.976562 -0.617188 10.53125 -0.421875 C 10.09375 -0.222656 9.609375 -0.0703125 9.078125 0.03125 C 8.554688 0.144531 7.976562 0.203125 7.34375 0.203125 C 6.113281 0.203125 5.066406 0.00390625 4.203125 -0.390625 C 3.335938 -0.796875 2.628906 -1.332031 2.078125 -2 C 1.535156 -2.664062 1.140625 -3.429688 0.890625 -4.296875 C 0.640625 -5.160156 0.515625 -6.066406 0.515625 -7.015625 C 0.515625 -7.609375 0.570312 -8.203125 0.6875 -8.796875 C 0.800781 -9.390625 0.976562 -9.953125 1.21875 -10.484375 C 1.46875 -11.015625 1.769531 -11.507812 2.125 -11.96875 C 2.488281 -12.425781 2.910156 -12.816406 3.390625 -13.140625 C 3.878906 -13.472656 4.425781 -13.734375 5.03125 -13.921875 C 5.644531 -14.117188 6.316406 -14.21875 7.046875 -14.21875 C 8.066406 -14.21875 8.945312 -14.066406 9.6875 -13.765625 C 10.4375 -13.460938 11.050781 -13.039062 11.53125 -12.5 C 12.019531 -11.96875 12.382812 -11.320312 12.625 -10.5625 C 12.863281 -9.800781 12.984375 -8.960938 12.984375 -8.046875 C 12.984375 -7.816406 12.96875 -7.515625 12.9375 -7.140625 C 12.90625 -6.773438 12.867188 -6.375 12.828125 -5.9375 L 4.296875 -5.9375 C 4.304688 -5.476562 4.398438 -5.039062 4.578125 -4.625 C 4.765625 -4.21875 5.003906 -3.859375 5.296875 -3.546875 C 5.585938 -3.242188 5.925781 -3 6.3125 -2.8125 C 6.707031 -2.632812 7.132812 -2.546875 7.59375 -2.546875 C 7.96875 -2.546875 8.320312 -2.585938 8.65625 -2.671875 C 8.988281 -2.753906 9.289062 -2.859375 9.5625 -2.984375 C 9.84375 -3.109375 10.085938 -3.234375 10.296875 -3.359375 C 10.515625 -3.492188 10.6875 -3.613281 10.8125 -3.71875 Z M 9.359375 -8.5625 C 9.359375 -8.957031 9.328125 -9.328125 9.265625 -9.671875 C 9.210938 -10.015625 9.101562 -10.320312 8.9375 -10.59375 C 8.78125 -10.863281 8.5625 -11.078125 8.28125 -11.234375 C 8.007812 -11.390625 7.65625 -11.46875 7.21875 -11.46875 C 6.851562 -11.46875 6.53125 -11.398438 6.25 -11.265625 C 5.976562 -11.140625 5.742188 -10.984375 5.546875 -10.796875 C 5.347656 -10.609375 5.1875 -10.40625 5.0625 -10.1875 C 4.9375 -9.976562 4.835938 -9.796875 4.765625 -9.640625 L 3.609375 -8.328125 L 5.8125 -8.546875 Z M 9.359375 -8.5625 "/></g></g></g><g fill="#ffffff" fill-opacity="1"><g transform="translate(267.034975, 207.023804)"><g><path d="M 10.046875 -11.046875 C 9.878906 -11.128906 9.726562 -11.195312 9.59375 -11.25 C 9.457031 -11.3125 9.320312 -11.359375 9.1875 -11.390625 C 9.050781 -11.421875 8.90625 -11.441406 8.75 -11.453125 C 8.601562 -11.460938 8.4375 -11.46875 8.25 -11.46875 C 8.007812 -11.46875 7.765625 -11.410156 7.515625 -11.296875 C 7.273438 -11.179688 7.039062 -11.023438 6.8125 -10.828125 C 6.59375 -10.628906 6.390625 -10.40625 6.203125 -10.15625 C 6.015625 -9.90625 5.859375 -9.644531 5.734375 -9.375 L 5.734375 0 L 1.578125 0 L 1.578125 -13.921875 L 5.734375 -14.34375 L 5.734375 -11.40625 L 6.9375 -14.015625 C 7.070312 -14.066406 7.265625 -14.113281 7.515625 -14.15625 C 7.765625 -14.207031 8 -14.234375 8.21875 -14.234375 C 8.6875 -14.234375 9.070312 -14.195312 9.375 -14.125 C 9.675781 -14.050781 9.960938 -13.945312 10.234375 -13.8125 Z M 10.046875 -11.046875 "/></g></g></g><g clip-path="url(#07ccf7d7f7)"><path fill="#ffffff" d="M 149.925781 204.449219 L 140.546875 197.3125 C 140.023438 196.914062 139.277344 197.03125 138.890625 197.5625 C 137.390625 199.628906 135.691406 201.542969 133.816406 203.269531 C 133.066406 203.957031 131.855469 203.429688 131.855469 202.410156 L 131.855469 182.445312 C 130.199219 183.65625 128.496094 184.796875 126.738281 185.859375 C 125.910156 186.359375 125.074219 186.84375 124.230469 187.308594 C 122.378906 188.324219 120.484375 189.261719 118.550781 190.113281 L 118.550781 210.980469 C 118.550781 211.511719 118.191406 211.972656 117.679688 212.109375 C 117.386719 212.1875 117.09375 212.257812 116.800781 212.328125 C 116.070312 212.5 115.367188 211.945312 115.367188 211.191406 L 115.367188 191.429688 C 115.097656 191.535156 114.832031 191.636719 114.5625 191.738281 C 113.796875 192.019531 113.03125 192.292969 112.261719 192.550781 C 112.253906 192.554688 112.25 192.554688 112.246094 192.554688 C 109.078125 193.621094 105.84375 194.476562 102.578125 195.125 C 102.40625 195.15625 102.234375 195.191406 102.0625 195.226562 L 102.0625 211.515625 C 102.0625 212.25 101.394531 212.800781 100.671875 212.664062 C 99.851562 212.503906 99.042969 212.320312 98.238281 212.109375 C 97.726562 211.972656 97.367188 211.511719 97.367188 210.980469 L 97.367188 195.984375 C 97.164062 196.011719 96.964844 196.039062 96.761719 196.0625 C 96.105469 196.15625 95.449219 196.21875 94.792969 196.289062 L 93.808594 196.390625 L 92.820312 196.46875 L 91.835938 196.546875 C 91.671875 196.558594 91.507812 196.574219 91.34375 196.582031 L 90.851562 196.609375 C 90.191406 196.640625 89.535156 196.679688 88.875 196.707031 C 87.269531 196.765625 85.667969 196.785156 84.0625 196.765625 L 84.0625 202.414062 C 84.0625 203.429688 82.851562 203.960938 82.101562 203.269531 C 81.585938 202.796875 81.085938 202.304688 80.597656 201.804688 C 79.308594 200.480469 78.113281 199.0625 77.027344 197.5625 C 76.640625 197.03125 75.894531 196.917969 75.371094 197.3125 L 68.792969 202.320312 L 65.996094 204.449219 C 65.484375 204.835938 65.382812 205.5625 65.765625 206.074219 C 66.003906 206.394531 66.242188 206.714844 66.488281 207.03125 C 76.085938 219.386719 91.09375 227.335938 107.960938 227.335938 C 125.253906 227.335938 140.597656 218.976562 150.15625 206.074219 C 150.535156 205.5625 150.433594 204.835938 149.925781 204.449219 Z M 85.765625 192.703125 C 86.082031 192.683594 86.398438 192.667969 86.710938 192.636719 L 86.976562 192.617188 L 88.601562 192.480469 C 88.898438 192.449219 89.199219 192.417969 89.496094 192.386719 C 89.828125 192.351562 90.15625 192.316406 90.484375 192.285156 L 90.957031 192.234375 C 91.113281 192.21875 91.269531 192.195312 91.425781 192.175781 L 93.300781 191.941406 L 94.234375 191.800781 C 94.855469 191.707031 95.480469 191.625 96.097656 191.511719 C 96.519531 191.441406 96.945312 191.371094 97.367188 191.292969 L 97.367188 165.910156 C 97.367188 165.054688 96.476562 164.492188 95.703125 164.855469 L 84.734375 170.011719 C 84.324219 170.207031 84.0625 170.617188 84.0625 171.070312 L 84.0625 192.8125 C 84.316406 192.796875 84.566406 192.777344 84.816406 192.761719 Z M 113.703125 152.339844 L 102.734375 157.5 C 102.324219 157.691406 102.0625 158.101562 102.0625 158.554688 L 102.0625 190.328125 C 102.234375 190.289062 102.40625 190.25 102.578125 190.207031 C 105.3125 189.550781 108.007812 188.769531 110.65625 187.851562 C 111.1875 187.667969 111.71875 187.476562 112.246094 187.28125 C 113.023438 186.996094 113.792969 186.695312 114.5625 186.386719 C 114.832031 186.277344 115.097656 186.164062 115.367188 186.054688 L 115.367188 153.398438 C 115.367188 152.542969 114.476562 151.976562 113.703125 152.339844 Z M 131.855469 172.929688 L 131.855469 176.605469 L 131.277344 177.035156 C 131.027344 177.222656 130.773438 177.402344 130.519531 177.585938 C 128.492188 179.042969 126.394531 180.398438 124.242188 181.652344 C 124.238281 181.65625 124.234375 181.65625 124.230469 181.660156 C 122.378906 182.730469 120.484375 183.722656 118.550781 184.636719 L 118.550781 176.582031 C 118.550781 176.082031 118.875 175.636719 119.351562 175.476562 L 130.320312 171.824219 C 131.074219 171.570312 131.855469 172.132812 131.855469 172.929688 " fill-opacity="1" fill-rule="nonzero"/></g><g clip-path="url(#9f2943bbb9)"><path fill="#ffffff" d="M 159.441406 139.585938 L 147.195312 149.417969 L 152.722656 149.933594 C 152.464844 150.308594 152.210938 150.683594 151.953125 151.054688 C 151.222656 152.109375 150.480469 153.152344 149.730469 154.183594 C 149.351562 154.699219 148.976562 155.210938 148.589844 155.71875 C 148.210938 156.230469 147.820312 156.730469 147.429688 157.238281 C 147.238281 157.488281 147.039062 157.734375 146.84375 157.984375 L 146.546875 158.359375 C 146.449219 158.484375 146.347656 158.605469 146.246094 158.730469 L 145.648438 159.472656 L 145.042969 160.203125 L 144.738281 160.570312 L 144.429688 160.933594 L 143.816406 161.65625 L 143.191406 162.371094 L 142.878906 162.726562 C 142.773438 162.84375 142.664062 162.960938 142.558594 163.078125 L 141.925781 163.78125 C 141.714844 164.015625 141.496094 164.246094 141.28125 164.476562 C 140.855469 164.941406 140.414062 165.390625 139.980469 165.847656 C 138.222656 167.65625 136.398438 169.386719 134.507812 171.035156 C 134.273438 171.242188 134.03125 171.441406 133.792969 171.644531 L 133.078125 172.253906 L 132.347656 172.84375 C 132.105469 173.042969 131.863281 173.242188 131.617188 173.433594 L 130.878906 174.011719 C 130.753906 174.105469 130.632812 174.207031 130.507812 174.296875 L 129.382812 175.140625 C 129.128906 175.324219 128.875 175.507812 128.621094 175.6875 C 126.59375 177.144531 124.496094 178.503906 122.34375 179.753906 C 118.03125 182.253906 113.476562 184.324219 108.757812 185.957031 C 104.039062 187.589844 99.164062 188.800781 94.199219 189.613281 C 93.582031 189.726562 92.957031 189.808594 92.335938 189.902344 L 91.402344 190.042969 L 90.464844 190.164062 L 89.527344 190.28125 C 89.371094 190.300781 89.214844 190.320312 89.058594 190.339844 L 88.585938 190.386719 C 87.960938 190.453125 87.332031 190.523438 86.703125 190.582031 L 84.816406 190.742188 C 84.5 190.769531 84.183594 190.789062 83.867188 190.808594 L 82.921875 190.867188 C 82.605469 190.886719 82.289062 190.910156 81.972656 190.925781 L 81.023438 190.964844 L 80.074219 191.007812 L 79.597656 191.03125 L 79.121094 191.042969 L 77.21875 191.089844 C 76.582031 191.097656 75.949219 191.097656 75.3125 191.101562 L 74.835938 191.101562 C 74.675781 191.105469 74.515625 191.105469 74.355469 191.105469 L 73.402344 191.089844 L 72.445312 191.078125 L 71.96875 191.074219 C 71.808594 191.074219 71.648438 191.066406 71.492188 191.0625 L 69.578125 191.003906 C 69.417969 191 69.257812 190.996094 69.097656 190.988281 L 68.621094 190.964844 L 67.664062 190.921875 C 67.023438 190.890625 66.386719 190.871094 65.746094 190.820312 L 63.828125 190.703125 C 61.273438 190.515625 58.714844 190.304688 56.15625 190.027344 L 55.191406 189.925781 L 54.710938 189.878906 L 54.234375 189.820312 C 53.59375 189.746094 52.953125 189.667969 52.308594 189.597656 C 51.988281 189.5625 51.667969 189.527344 51.347656 189.484375 L 50.386719 189.367188 C 49.746094 189.285156 49.101562 189.207031 48.457031 189.136719 C 49.074219 189.335938 49.691406 189.53125 50.308594 189.722656 C 50.929688 189.917969 51.546875 190.113281 52.171875 190.285156 C 52.792969 190.460938 53.417969 190.636719 54.042969 190.8125 L 54.511719 190.941406 L 54.984375 191.0625 L 55.925781 191.304688 L 56.871094 191.542969 C 57.183594 191.621094 57.5 191.703125 57.816406 191.773438 L 59.714844 192.207031 L 60.191406 192.3125 L 60.429688 192.367188 L 60.667969 192.414062 L 61.625 192.609375 L 62.582031 192.800781 L 63.058594 192.898438 L 63.296875 192.945312 L 63.539062 192.988281 C 64.820312 193.210938 66.101562 193.449219 67.390625 193.636719 L 68.359375 193.78125 L 68.84375 193.851562 C 69.003906 193.875 69.167969 193.894531 69.328125 193.914062 L 71.273438 194.160156 C 71.433594 194.179688 71.597656 194.203125 71.757812 194.21875 L 72.246094 194.269531 L 73.222656 194.367188 L 74.195312 194.464844 C 74.523438 194.496094 74.847656 194.519531 75.175781 194.542969 C 75.828125 194.589844 76.480469 194.644531 77.132812 194.6875 L 79.097656 194.785156 C 81.71875 194.890625 84.347656 194.910156 86.976562 194.8125 C 87.636719 194.785156 88.292969 194.746094 88.953125 194.714844 L 89.445312 194.6875 C 89.609375 194.679688 89.773438 194.664062 89.9375 194.652344 L 90.925781 194.574219 L 91.910156 194.496094 L 92.894531 194.390625 C 93.554688 194.324219 94.210938 194.257812 94.863281 194.167969 C 100.109375 193.515625 105.316406 192.351562 110.363281 190.65625 C 115.40625 188.960938 120.28125 186.722656 124.84375 183.964844 C 127.121094 182.582031 129.320312 181.070312 131.425781 179.449219 C 133.527344 177.824219 135.550781 176.09375 137.457031 174.253906 C 137.929688 173.789062 138.410156 173.332031 138.867188 172.855469 L 139.566406 172.148438 L 140.246094 171.425781 L 140.585938 171.066406 C 140.699219 170.945312 140.808594 170.820312 140.917969 170.699219 L 141.582031 169.964844 C 141.695312 169.84375 141.800781 169.71875 141.910156 169.59375 L 142.558594 168.84375 L 142.722656 168.65625 L 142.878906 168.46875 C 144.578125 166.453125 146.1875 164.367188 147.679688 162.207031 C 150.214844 158.566406 152.445312 154.746094 154.433594 150.824219 L 157.9375 155.210938 L 159.441406 139.585938 " fill-opacity="1" fill-rule="nonzero"/></g></svg>