<svg xmlns="http://www.w3.org/2000/svg" xmlns:xlink="http://www.w3.org/1999/xlink" width="676" zoomAndPan="magnify" viewBox="0 0 507 289.499996" height="386" preserveAspectRatio="xMidYMid meet" version="1.0"><defs><g/><clipPath id="ed3c8bd361"><path d="M 93 75.578125 L 414 75.578125 L 414 214 L 93 214 Z M 93 75.578125 " clip-rule="nonzero"/></clipPath><clipPath id="18aa946188"><path d="M 400.546875 178.960938 C 380.910156 200.890625 352.867188 213.425781 323.433594 213.425781 L 183.566406 213.425781 C 154.132812 213.425781 126.089844 200.890625 106.453125 178.960938 C 88.890625 159.34375 88.890625 129.65625 106.453125 110.039062 C 126.089844 88.109375 154.132812 75.578125 183.566406 75.578125 L 323.433594 75.578125 C 352.867188 75.578125 380.910156 88.109375 400.546875 110.039062 C 418.109375 129.65625 418.109375 159.34375 400.546875 178.960938 " clip-rule="nonzero"/></clipPath><clipPath id="d6b5bed31a"><path d="M 131 109 L 217 109 L 217 184.269531 L 131 184.269531 Z M 131 109 " clip-rule="nonzero"/></clipPath><clipPath id="a9b9d7cbfc"><path d="M 114.6875 96.671875 L 225.496094 96.671875 L 225.496094 152 L 114.6875 152 Z M 114.6875 96.671875 " clip-rule="nonzero"/></clipPath></defs><g clip-path="url(#ed3c8bd361)"><g clip-path="url(#18aa946188)"><path fill="#1d3b80" d="M 75.597656 75.578125 L 430.4375 75.578125 L 430.4375 214.425781 L 75.597656 214.425781 Z M 75.597656 75.578125 " fill-opacity="1" fill-rule="nonzero"/></g></g><g fill="#ffffff" fill-opacity="1"><g transform="translate(238.796616, 138.534545)"><g><path d="M 14.546875 -1.6875 C 13.691406 -1 12.785156 -0.507812 11.828125 -0.21875 C 10.878906 0.0703125 9.851562 0.21875 8.75 0.21875 C 7.4375 0.21875 6.257812 -0.046875 5.21875 -0.578125 C 4.175781 -1.109375 3.289062 -1.828125 2.5625 -2.734375 C 1.832031 -3.640625 1.273438 -4.695312 0.890625 -5.90625 C 0.503906 -7.125 0.3125 -8.414062 0.3125 -9.78125 C 0.3125 -11.0625 0.484375 -12.273438 0.828125 -13.421875 C 1.171875 -14.578125 1.703125 -15.585938 2.421875 -16.453125 C 3.140625 -17.328125 4.046875 -18.019531 5.140625 -18.53125 C 6.234375 -19.039062 7.523438 -19.296875 9.015625 -19.296875 C 10.109375 -19.296875 11.148438 -19.101562 12.140625 -18.71875 C 13.140625 -18.34375 14.015625 -17.800781 14.765625 -17.09375 L 12.890625 -14.875 C 12.609375 -15.0625 12.3125 -15.238281 12 -15.40625 C 11.695312 -15.582031 11.382812 -15.734375 11.0625 -15.859375 C 10.75 -15.984375 10.4375 -16.082031 10.125 -16.15625 C 9.8125 -16.238281 9.507812 -16.28125 9.21875 -16.28125 C 8.414062 -16.28125 7.734375 -16.109375 7.171875 -15.765625 C 6.609375 -15.421875 6.144531 -14.953125 5.78125 -14.359375 C 5.425781 -13.773438 5.164062 -13.085938 5 -12.296875 C 4.832031 -11.515625 4.75 -10.6875 4.75 -9.8125 C 4.75 -9.300781 4.785156 -8.769531 4.859375 -8.21875 C 4.929688 -7.675781 5.039062 -7.144531 5.1875 -6.625 C 5.34375 -6.101562 5.535156 -5.613281 5.765625 -5.15625 C 6.003906 -4.695312 6.28125 -4.289062 6.59375 -3.9375 C 6.914062 -3.59375 7.28125 -3.316406 7.6875 -3.109375 C 8.09375 -2.910156 8.550781 -2.8125 9.0625 -2.8125 C 9.34375 -2.8125 9.625 -2.832031 9.90625 -2.875 C 10.1875 -2.925781 10.476562 -3.003906 10.78125 -3.109375 C 11.09375 -3.210938 11.429688 -3.351562 11.796875 -3.53125 C 12.160156 -3.707031 12.570312 -3.921875 13.03125 -4.171875 Z M 14.546875 -1.6875 "/></g></g></g><g fill="#ffffff" fill-opacity="1"><g transform="translate(254.056282, 138.534545)"><g><path d="M 16.40625 -19.078125 L 11.1875 -2.59375 L 10.828125 0.3125 L 5.859375 -0.0625 L -0.203125 -18.96875 L 3.890625 -19.40625 L 7.109375 -8.90625 L 8.3125 -3.3125 L 9.1875 -8.90625 L 12.34375 -19.078125 Z M 16.40625 -19.078125 "/></g></g></g><g fill="#ffffff" fill-opacity="1"><g transform="translate(238.796616, 163.990578)"><g><path d="M 11.734375 -10.15625 L 15.890625 -19.015625 L 20.34375 -19.40625 L 20.34375 0 L 16.140625 0 L 16.140625 -7.015625 L 16.71875 -13.484375 L 16.65625 -13.5 L 14.5625 -7.390625 L 11.796875 -1.5625 L 9.46875 -1.5625 L 6.9375 -6.8125 L 4.796875 -13.484375 L 4.71875 -13.46875 L 5.375 -6.328125 L 5.375 0 L 1.265625 0 L 1.265625 -16.0625 L 0.890625 -19 L 5.453125 -19.390625 L 9.828125 -10.1875 L 10.78125 -6.328125 Z M 11.734375 -10.15625 "/></g></g></g><g fill="#ffffff" fill-opacity="1"><g transform="translate(261.68611, 163.990578)"><g><path d="M 12.375 0 L 8.0625 0 L 8.0625 -2.0625 L 6.53125 0.15625 C 6.46875 0.164062 6.390625 0.175781 6.296875 0.1875 C 6.203125 0.207031 6.066406 0.21875 5.890625 0.21875 C 5.160156 0.21875 4.46875 0.113281 3.8125 -0.09375 C 3.164062 -0.300781 2.59375 -0.601562 2.09375 -1 C 1.601562 -1.40625 1.210938 -1.90625 0.921875 -2.5 C 0.628906 -3.09375 0.484375 -3.773438 0.484375 -4.546875 C 0.484375 -5.097656 0.5625 -5.59375 0.71875 -6.03125 C 0.882812 -6.46875 1.109375 -6.859375 1.390625 -7.203125 C 1.671875 -7.554688 2 -7.859375 2.375 -8.109375 C 2.75 -8.367188 3.148438 -8.578125 3.578125 -8.734375 C 4.003906 -8.898438 4.441406 -9.023438 4.890625 -9.109375 C 5.347656 -9.191406 5.796875 -9.234375 6.234375 -9.234375 C 6.609375 -9.234375 6.945312 -9.21875 7.25 -9.1875 C 7.550781 -9.164062 7.816406 -9.132812 8.046875 -9.09375 C 8.035156 -9.4375 8.007812 -9.75 7.96875 -10.03125 C 7.925781 -10.3125 7.847656 -10.554688 7.734375 -10.765625 C 7.628906 -10.984375 7.484375 -11.148438 7.296875 -11.265625 C 7.109375 -11.390625 6.875 -11.453125 6.59375 -11.453125 C 5.863281 -11.453125 5.164062 -11.367188 4.5 -11.203125 C 3.84375 -11.035156 3.25 -10.851562 2.71875 -10.65625 L 1.40625 -13.015625 C 2.0625 -13.304688 2.707031 -13.539062 3.34375 -13.71875 C 3.75 -13.84375 4.226562 -13.953125 4.78125 -14.046875 C 5.34375 -14.148438 5.984375 -14.203125 6.703125 -14.203125 C 7.804688 -14.203125 8.707031 -14.066406 9.40625 -13.796875 C 10.101562 -13.535156 10.648438 -13.160156 11.046875 -12.671875 C 11.441406 -12.179688 11.710938 -11.59375 11.859375 -10.90625 C 12.003906 -10.226562 12.078125 -9.476562 12.078125 -8.65625 L 12.078125 -2.609375 Z M 8.0625 -6.546875 C 7.863281 -6.578125 7.640625 -6.601562 7.390625 -6.625 C 7.148438 -6.644531 6.921875 -6.65625 6.703125 -6.65625 C 6.398438 -6.65625 6.101562 -6.609375 5.8125 -6.515625 C 5.519531 -6.429688 5.257812 -6.304688 5.03125 -6.140625 C 4.800781 -5.972656 4.613281 -5.753906 4.46875 -5.484375 C 4.320312 -5.222656 4.25 -4.914062 4.25 -4.5625 C 4.25 -4.28125 4.296875 -4.015625 4.390625 -3.765625 C 4.484375 -3.515625 4.601562 -3.296875 4.75 -3.109375 C 4.90625 -2.929688 5.078125 -2.789062 5.265625 -2.6875 C 5.460938 -2.59375 5.65625 -2.546875 5.84375 -2.546875 C 6.09375 -2.546875 6.328125 -2.582031 6.546875 -2.65625 C 6.773438 -2.726562 6.984375 -2.820312 7.171875 -2.9375 C 7.367188 -3.050781 7.539062 -3.175781 7.6875 -3.3125 C 7.832031 -3.445312 7.957031 -3.570312 8.0625 -3.6875 Z M 8.0625 -6.546875 "/></g></g></g><g fill="#ffffff" fill-opacity="1"><g transform="translate(275.038307, 163.990578)"><g><path d="M 5.796875 -14.328125 L 5.796875 -11.921875 L 6.9375 -13.84375 C 7.207031 -13.9375 7.484375 -14.019531 7.765625 -14.09375 C 8.054688 -14.164062 8.351562 -14.203125 8.65625 -14.203125 C 9.019531 -14.203125 9.367188 -14.191406 9.703125 -14.171875 C 10.046875 -14.148438 10.375 -14.097656 10.6875 -14.015625 C 11.007812 -13.941406 11.304688 -13.828125 11.578125 -13.671875 C 11.859375 -13.515625 12.125 -13.300781 12.375 -13.03125 C 12.632812 -12.738281 12.835938 -12.421875 12.984375 -12.078125 C 13.128906 -11.742188 13.234375 -11.40625 13.296875 -11.0625 C 13.359375 -10.726562 13.394531 -10.398438 13.40625 -10.078125 C 13.425781 -9.765625 13.4375 -9.488281 13.4375 -9.25 L 13.4375 0 L 9.28125 0 L 9.28125 -9.625 C 9.28125 -9.976562 9.25 -10.269531 9.1875 -10.5 C 9.125 -10.726562 9.035156 -10.910156 8.921875 -11.046875 C 8.816406 -11.191406 8.6875 -11.296875 8.53125 -11.359375 C 8.375 -11.421875 8.203125 -11.453125 8.015625 -11.453125 C 7.867188 -11.453125 7.703125 -11.425781 7.515625 -11.375 C 7.335938 -11.320312 7.148438 -11.25 6.953125 -11.15625 C 6.765625 -11.070312 6.566406 -10.960938 6.359375 -10.828125 C 6.160156 -10.691406 5.972656 -10.539062 5.796875 -10.375 L 5.796875 0 L 1.65625 0 L 1.65625 -13.90625 Z M 5.796875 -14.328125 "/></g></g></g><g fill="#ffffff" fill-opacity="1"><g transform="translate(290.297974, 163.990578)"><g><path d="M 12.375 0 L 8.0625 0 L 8.0625 -2.0625 L 6.53125 0.15625 C 6.46875 0.164062 6.390625 0.175781 6.296875 0.1875 C 6.203125 0.207031 6.066406 0.21875 5.890625 0.21875 C 5.160156 0.21875 4.46875 0.113281 3.8125 -0.09375 C 3.164062 -0.300781 2.59375 -0.601562 2.09375 -1 C 1.601562 -1.40625 1.210938 -1.90625 0.921875 -2.5 C 0.628906 -3.09375 0.484375 -3.773438 0.484375 -4.546875 C 0.484375 -5.097656 0.5625 -5.59375 0.71875 -6.03125 C 0.882812 -6.46875 1.109375 -6.859375 1.390625 -7.203125 C 1.671875 -7.554688 2 -7.859375 2.375 -8.109375 C 2.75 -8.367188 3.148438 -8.578125 3.578125 -8.734375 C 4.003906 -8.898438 4.441406 -9.023438 4.890625 -9.109375 C 5.347656 -9.191406 5.796875 -9.234375 6.234375 -9.234375 C 6.609375 -9.234375 6.945312 -9.21875 7.25 -9.1875 C 7.550781 -9.164062 7.816406 -9.132812 8.046875 -9.09375 C 8.035156 -9.4375 8.007812 -9.75 7.96875 -10.03125 C 7.925781 -10.3125 7.847656 -10.554688 7.734375 -10.765625 C 7.628906 -10.984375 7.484375 -11.148438 7.296875 -11.265625 C 7.109375 -11.390625 6.875 -11.453125 6.59375 -11.453125 C 5.863281 -11.453125 5.164062 -11.367188 4.5 -11.203125 C 3.84375 -11.035156 3.25 -10.851562 2.71875 -10.65625 L 1.40625 -13.015625 C 2.0625 -13.304688 2.707031 -13.539062 3.34375 -13.71875 C 3.75 -13.84375 4.226562 -13.953125 4.78125 -14.046875 C 5.34375 -14.148438 5.984375 -14.203125 6.703125 -14.203125 C 7.804688 -14.203125 8.707031 -14.066406 9.40625 -13.796875 C 10.101562 -13.535156 10.648438 -13.160156 11.046875 -12.671875 C 11.441406 -12.179688 11.710938 -11.59375 11.859375 -10.90625 C 12.003906 -10.226562 12.078125 -9.476562 12.078125 -8.65625 L 12.078125 -2.609375 Z M 8.0625 -6.546875 C 7.863281 -6.578125 7.640625 -6.601562 7.390625 -6.625 C 7.148438 -6.644531 6.921875 -6.65625 6.703125 -6.65625 C 6.398438 -6.65625 6.101562 -6.609375 5.8125 -6.515625 C 5.519531 -6.429688 5.257812 -6.304688 5.03125 -6.140625 C 4.800781 -5.972656 4.613281 -5.753906 4.46875 -5.484375 C 4.320312 -5.222656 4.25 -4.914062 4.25 -4.5625 C 4.25 -4.28125 4.296875 -4.015625 4.390625 -3.765625 C 4.484375 -3.515625 4.601562 -3.296875 4.75 -3.109375 C 4.90625 -2.929688 5.078125 -2.789062 5.265625 -2.6875 C 5.460938 -2.59375 5.65625 -2.546875 5.84375 -2.546875 C 6.09375 -2.546875 6.328125 -2.582031 6.546875 -2.65625 C 6.773438 -2.726562 6.984375 -2.820312 7.171875 -2.9375 C 7.367188 -3.050781 7.539062 -3.175781 7.6875 -3.3125 C 7.832031 -3.445312 7.957031 -3.570312 8.0625 -3.6875 Z M 8.0625 -6.546875 "/></g></g></g><g fill="#ffffff" fill-opacity="1"><g transform="translate(303.650171, 163.990578)"><g><path d="M 9.25 -0.203125 C 8.976562 -0.0859375 8.632812 0.0078125 8.21875 0.09375 C 7.8125 0.175781 7.363281 0.21875 6.875 0.21875 C 6.007812 0.21875 5.207031 0.03125 4.46875 -0.34375 C 3.738281 -0.726562 3.101562 -1.242188 2.5625 -1.890625 C 2.019531 -2.535156 1.59375 -3.289062 1.28125 -4.15625 C 0.96875 -5.03125 0.8125 -5.957031 0.8125 -6.9375 C 0.8125 -7.925781 0.953125 -8.859375 1.234375 -9.734375 C 1.515625 -10.617188 1.929688 -11.390625 2.484375 -12.046875 C 3.035156 -12.710938 3.722656 -13.238281 4.546875 -13.625 C 5.367188 -14.007812 6.328125 -14.203125 7.421875 -14.203125 C 7.566406 -14.203125 7.691406 -14.195312 7.796875 -14.1875 C 7.898438 -14.1875 7.992188 -14.179688 8.078125 -14.171875 L 9.234375 -12.1875 L 9.234375 -14.328125 L 13.375 -13.90625 L 13.375 0.515625 C 13.375 1.359375 13.21875 2.144531 12.90625 2.875 C 12.601562 3.613281 12.160156 4.253906 11.578125 4.796875 C 11.003906 5.347656 10.300781 5.78125 9.46875 6.09375 C 8.644531 6.414062 7.707031 6.578125 6.65625 6.578125 C 6.09375 6.578125 5.585938 6.53125 5.140625 6.4375 C 4.703125 6.351562 4.289062 6.222656 3.90625 6.046875 C 3.519531 5.878906 3.160156 5.671875 2.828125 5.421875 C 2.492188 5.171875 2.160156 4.882812 1.828125 4.5625 L 3.65625 2.4375 C 3.789062 2.5625 3.96875 2.691406 4.1875 2.828125 C 4.414062 2.972656 4.660156 3.113281 4.921875 3.25 C 5.191406 3.382812 5.476562 3.5 5.78125 3.59375 C 6.082031 3.6875 6.378906 3.734375 6.671875 3.734375 C 7.023438 3.734375 7.359375 3.644531 7.671875 3.46875 C 7.984375 3.289062 8.253906 3.050781 8.484375 2.75 C 8.722656 2.445312 8.910156 2.085938 9.046875 1.671875 C 9.179688 1.265625 9.25 0.820312 9.25 0.34375 Z M 9.234375 -10.421875 C 8.992188 -10.703125 8.710938 -10.941406 8.390625 -11.140625 C 8.078125 -11.347656 7.726562 -11.453125 7.34375 -11.453125 C 6.84375 -11.453125 6.4375 -11.296875 6.125 -10.984375 C 5.8125 -10.679688 5.566406 -10.296875 5.390625 -9.828125 C 5.222656 -9.367188 5.109375 -8.867188 5.046875 -8.328125 C 4.992188 -7.785156 4.96875 -7.273438 4.96875 -6.796875 C 4.96875 -6.191406 5.019531 -5.628906 5.125 -5.109375 C 5.226562 -4.597656 5.367188 -4.148438 5.546875 -3.765625 C 5.734375 -3.378906 5.953125 -3.078125 6.203125 -2.859375 C 6.460938 -2.648438 6.75 -2.546875 7.0625 -2.546875 C 7.5625 -2.546875 7.976562 -2.648438 8.3125 -2.859375 C 8.65625 -3.066406 8.960938 -3.332031 9.234375 -3.65625 Z M 9.234375 -10.421875 "/></g></g></g><g fill="#ffffff" fill-opacity="1"><g transform="translate(318.909837, 163.990578)"><g><path d="M 12.75 -2.015625 C 12.4375 -1.691406 12.097656 -1.394531 11.734375 -1.125 C 11.367188 -0.851562 10.960938 -0.617188 10.515625 -0.421875 C 10.078125 -0.222656 9.59375 -0.0703125 9.0625 0.03125 C 8.539062 0.144531 7.960938 0.203125 7.328125 0.203125 C 6.109375 0.203125 5.066406 0.00390625 4.203125 -0.390625 C 3.335938 -0.785156 2.628906 -1.316406 2.078125 -1.984375 C 1.535156 -2.648438 1.140625 -3.414062 0.890625 -4.28125 C 0.640625 -5.144531 0.515625 -6.050781 0.515625 -7 C 0.515625 -7.59375 0.570312 -8.1875 0.6875 -8.78125 C 0.800781 -9.375 0.976562 -9.929688 1.21875 -10.453125 C 1.46875 -10.984375 1.769531 -11.476562 2.125 -11.9375 C 2.488281 -12.394531 2.910156 -12.789062 3.390625 -13.125 C 3.878906 -13.457031 4.425781 -13.71875 5.03125 -13.90625 C 5.632812 -14.09375 6.300781 -14.1875 7.03125 -14.1875 C 8.050781 -14.1875 8.929688 -14.035156 9.671875 -13.734375 C 10.421875 -13.441406 11.035156 -13.023438 11.515625 -12.484375 C 12.003906 -11.941406 12.363281 -11.289062 12.59375 -10.53125 C 12.832031 -9.78125 12.953125 -8.945312 12.953125 -8.03125 C 12.953125 -7.800781 12.9375 -7.5 12.90625 -7.125 C 12.882812 -6.757812 12.851562 -6.359375 12.8125 -5.921875 L 4.28125 -5.921875 C 4.300781 -5.460938 4.398438 -5.023438 4.578125 -4.609375 C 4.753906 -4.203125 4.988281 -3.847656 5.28125 -3.546875 C 5.570312 -3.242188 5.910156 -3 6.296875 -2.8125 C 6.691406 -2.632812 7.117188 -2.546875 7.578125 -2.546875 C 7.953125 -2.546875 8.304688 -2.585938 8.640625 -2.671875 C 8.972656 -2.753906 9.273438 -2.859375 9.546875 -2.984375 C 9.828125 -3.109375 10.070312 -3.234375 10.28125 -3.359375 C 10.5 -3.492188 10.664062 -3.613281 10.78125 -3.71875 Z M 9.34375 -8.546875 C 9.34375 -8.929688 9.3125 -9.296875 9.25 -9.640625 C 9.195312 -9.992188 9.085938 -10.300781 8.921875 -10.5625 C 8.765625 -10.832031 8.546875 -11.046875 8.265625 -11.203125 C 7.992188 -11.367188 7.644531 -11.453125 7.21875 -11.453125 C 6.851562 -11.453125 6.53125 -11.382812 6.25 -11.25 C 5.976562 -11.125 5.738281 -10.96875 5.53125 -10.78125 C 5.332031 -10.59375 5.171875 -10.390625 5.046875 -10.171875 C 4.921875 -9.960938 4.820312 -9.773438 4.75 -9.609375 L 3.59375 -8.3125 L 5.796875 -8.53125 Z M 9.34375 -8.546875 "/></g></g></g><g fill="#ffffff" fill-opacity="1"><g transform="translate(332.897858, 163.990578)"><g><path d="M 10.03125 -11.03125 C 9.863281 -11.113281 9.710938 -11.179688 9.578125 -11.234375 C 9.441406 -11.285156 9.304688 -11.328125 9.171875 -11.359375 C 9.035156 -11.398438 8.890625 -11.425781 8.734375 -11.4375 C 8.585938 -11.445312 8.421875 -11.453125 8.234375 -11.453125 C 7.992188 -11.453125 7.75 -11.394531 7.5 -11.28125 C 7.257812 -11.164062 7.023438 -11.007812 6.796875 -10.8125 C 6.578125 -10.613281 6.375 -10.390625 6.1875 -10.140625 C 6.007812 -9.890625 5.851562 -9.628906 5.71875 -9.359375 L 5.71875 0 L 1.578125 0 L 1.578125 -13.90625 L 5.71875 -14.328125 L 5.71875 -11.390625 L 6.921875 -13.984375 C 7.054688 -14.035156 7.25 -14.082031 7.5 -14.125 C 7.75 -14.175781 7.984375 -14.203125 8.203125 -14.203125 C 8.671875 -14.203125 9.054688 -14.164062 9.359375 -14.09375 C 9.660156 -14.019531 9.945312 -13.914062 10.21875 -13.78125 Z M 10.03125 -11.03125 "/></g></g></g><g clip-path="url(#d6b5bed31a)"><path fill="#ffffff" d="M 215.992188 161.421875 L 206.625 154.296875 C 206.105469 153.898438 205.359375 154.011719 204.972656 154.546875 C 203.476562 156.609375 201.78125 158.519531 199.910156 160.242188 C 199.160156 160.929688 197.949219 160.402344 197.949219 159.386719 L 197.949219 139.453125 C 196.296875 140.660156 194.597656 141.800781 192.84375 142.863281 C 192.019531 143.359375 191.183594 143.84375 190.335938 144.308594 C 188.492188 145.324219 186.597656 146.257812 184.671875 147.109375 L 184.671875 167.9375 C 184.671875 168.46875 184.3125 168.933594 183.796875 169.066406 C 183.507812 169.144531 183.214844 169.214844 182.925781 169.285156 C 182.191406 169.460938 181.492188 168.902344 181.492188 168.152344 L 181.492188 148.425781 C 181.222656 148.527344 180.957031 148.628906 180.6875 148.730469 C 179.925781 149.011719 179.160156 149.285156 178.390625 149.542969 C 178.386719 149.542969 178.378906 149.546875 178.375 149.546875 C 175.214844 150.613281 171.984375 151.464844 168.726562 152.113281 C 168.554688 152.144531 168.382812 152.179688 168.210938 152.210938 L 168.210938 168.476562 C 168.210938 169.207031 167.542969 169.757812 166.824219 169.621094 C 166.003906 169.460938 165.195312 169.277344 164.394531 169.066406 C 163.878906 168.929688 163.523438 168.46875 163.523438 167.9375 L 163.523438 152.96875 C 163.320312 152.996094 163.121094 153.023438 162.917969 153.046875 C 162.265625 153.140625 161.609375 153.203125 160.953125 153.273438 L 159.96875 153.375 L 158 153.53125 C 157.835938 153.542969 157.671875 153.558594 157.507812 153.566406 L 157.015625 153.59375 C 156.359375 153.625 155.703125 153.664062 155.046875 153.695312 C 153.441406 153.75 151.839844 153.769531 150.242188 153.75 L 150.242188 159.386719 C 150.242188 160.402344 149.03125 160.929688 148.285156 160.242188 C 147.769531 159.769531 147.269531 159.28125 146.78125 158.78125 C 145.496094 157.457031 144.304688 156.042969 143.21875 154.546875 C 142.832031 154.015625 142.089844 153.898438 141.566406 154.296875 L 134.996094 159.296875 L 132.203125 161.421875 C 131.695312 161.808594 131.59375 162.53125 131.976562 163.042969 C 132.210938 163.363281 132.453125 163.679688 132.699219 163.996094 C 142.28125 176.332031 157.261719 184.269531 174.097656 184.269531 C 191.363281 184.269531 206.675781 175.921875 216.21875 163.042969 C 216.597656 162.53125 216.5 161.808594 215.992188 161.421875 Z M 151.941406 149.695312 C 152.257812 149.675781 152.570312 149.660156 152.886719 149.628906 L 153.152344 149.605469 L 154.773438 149.472656 C 155.070312 149.441406 155.367188 149.410156 155.667969 149.378906 C 155.996094 149.34375 156.324219 149.308594 156.652344 149.277344 L 157.121094 149.226562 C 157.277344 149.210938 157.433594 149.1875 157.589844 149.167969 L 158.527344 149.050781 L 159.460938 148.933594 L 160.394531 148.792969 C 161.015625 148.699219 161.636719 148.617188 162.253906 148.503906 C 162.679688 148.4375 163.101562 148.363281 163.523438 148.289062 L 163.523438 122.949219 C 163.523438 122.09375 162.632812 121.53125 161.859375 121.894531 L 150.910156 127.042969 C 150.503906 127.234375 150.242188 127.644531 150.242188 128.097656 L 150.242188 149.804688 C 150.492188 149.789062 150.746094 149.769531 150.996094 149.753906 Z M 179.828125 109.402344 L 168.878906 114.550781 C 168.472656 114.742188 168.210938 115.15625 168.210938 115.605469 L 168.210938 147.324219 C 168.382812 147.285156 168.554688 147.242188 168.726562 147.203125 C 171.453125 146.546875 174.144531 145.765625 176.789062 144.851562 C 177.320312 144.667969 177.847656 144.480469 178.375 144.285156 C 179.152344 143.996094 179.921875 143.699219 180.6875 143.386719 C 180.957031 143.277344 181.222656 143.167969 181.492188 143.054688 L 181.492188 110.457031 C 181.492188 109.601562 180.601562 109.039062 179.828125 109.402344 Z M 197.949219 129.957031 L 197.949219 133.625 L 197.375 134.054688 C 197.125 134.238281 196.871094 134.417969 196.617188 134.601562 C 194.59375 136.054688 192.5 137.410156 190.351562 138.664062 C 190.347656 138.664062 190.339844 138.667969 190.335938 138.667969 C 188.492188 139.738281 186.601562 140.730469 184.671875 141.640625 L 184.671875 133.601562 C 184.671875 133.101562 184.992188 132.65625 185.46875 132.496094 L 196.417969 128.851562 C 197.171875 128.597656 197.949219 129.160156 197.949219 129.957031 " fill-opacity="1" fill-rule="nonzero"/></g><g clip-path="url(#a9b9d7cbfc)"><path fill="#ffffff" d="M 225.488281 96.671875 L 213.265625 106.484375 L 218.78125 106.996094 C 218.527344 107.371094 218.269531 107.746094 218.015625 108.121094 C 217.285156 109.171875 216.546875 110.210938 215.796875 111.242188 C 215.417969 111.753906 215.042969 112.265625 214.660156 112.773438 C 214.28125 113.285156 213.886719 113.785156 213.5 114.289062 C 213.304688 114.539062 213.109375 114.789062 212.910156 115.039062 L 212.617188 115.410156 C 212.519531 115.535156 212.417969 115.65625 212.320312 115.78125 L 211.722656 116.519531 L 211.117188 117.253906 L 210.8125 117.617188 L 210.503906 117.976562 L 209.890625 118.699219 L 209.265625 119.414062 L 208.953125 119.769531 C 208.851562 119.886719 208.742188 120.003906 208.636719 120.121094 L 208.003906 120.824219 C 207.792969 121.054688 207.574219 121.285156 207.363281 121.515625 C 206.9375 121.980469 206.496094 122.429688 206.0625 122.886719 C 204.308594 124.691406 202.488281 126.417969 200.597656 128.0625 C 200.363281 128.269531 200.125 128.472656 199.886719 128.675781 L 199.171875 129.28125 L 198.441406 129.871094 C 198.199219 130.066406 197.960938 130.265625 197.710938 130.457031 L 196.976562 131.035156 C 196.851562 131.128906 196.730469 131.230469 196.605469 131.320312 L 195.480469 132.164062 C 195.230469 132.347656 194.976562 132.527344 194.722656 132.710938 C 192.699219 134.164062 190.605469 135.519531 188.457031 136.769531 C 184.148438 139.261719 179.601562 141.332031 174.894531 142.960938 C 170.183594 144.589844 165.316406 145.800781 160.363281 146.613281 C 159.742188 146.722656 159.121094 146.808594 158.5 146.898438 L 157.566406 147.039062 L 156.632812 147.160156 L 155.695312 147.277344 C 155.539062 147.292969 155.382812 147.316406 155.226562 147.332031 L 154.757812 147.382812 C 154.132812 147.445312 153.503906 147.519531 152.878906 147.578125 L 150.992188 147.734375 C 150.675781 147.765625 150.363281 147.78125 150.046875 147.800781 L 149.101562 147.863281 C 148.785156 147.882812 148.46875 147.90625 148.15625 147.921875 L 147.207031 147.960938 L 146.257812 148.003906 L 145.785156 148.023438 L 145.308594 148.035156 L 143.410156 148.082031 C 142.773438 148.089844 142.140625 148.089844 141.503906 148.09375 L 141.027344 148.097656 C 140.871094 148.097656 140.710938 148.101562 140.550781 148.097656 L 138.644531 148.074219 L 138.167969 148.070312 C 138.007812 148.066406 137.851562 148.058594 137.691406 148.054688 L 135.78125 148 C 135.621094 147.996094 135.460938 147.992188 135.304688 147.984375 L 134.824219 147.960938 L 133.871094 147.914062 C 133.230469 147.886719 132.59375 147.863281 131.957031 147.816406 L 130.042969 147.699219 C 127.492188 147.511719 124.9375 147.300781 122.382812 147.023438 L 121.421875 146.921875 L 120.941406 146.875 L 120.460938 146.816406 C 119.824219 146.742188 119.183594 146.667969 118.542969 146.59375 C 118.222656 146.558594 117.902344 146.523438 117.582031 146.484375 L 116.621094 146.363281 C 115.980469 146.28125 115.339844 146.203125 114.699219 146.132812 C 115.3125 146.332031 115.929688 146.527344 116.546875 146.71875 C 117.164062 146.914062 117.78125 147.109375 118.402344 147.28125 C 119.027344 147.457031 119.648438 147.632812 120.273438 147.804688 L 120.742188 147.9375 L 121.210938 148.058594 L 123.09375 148.535156 C 123.410156 148.613281 123.722656 148.699219 124.039062 148.765625 L 125.9375 149.199219 L 126.410156 149.304688 L 126.648438 149.359375 L 126.886719 149.40625 L 127.839844 149.601562 L 128.796875 149.792969 L 129.273438 149.886719 L 129.511719 149.9375 L 129.75 149.980469 C 131.03125 150.203125 132.3125 150.441406 133.597656 150.625 L 134.566406 150.769531 L 135.046875 150.839844 C 135.210938 150.867188 135.371094 150.882812 135.53125 150.90625 L 137.472656 151.148438 C 137.632812 151.167969 137.796875 151.191406 137.957031 151.207031 L 138.445312 151.257812 L 140.390625 151.453125 C 140.71875 151.484375 141.042969 151.507812 141.367188 151.53125 C 142.019531 151.578125 142.671875 151.632812 143.324219 151.675781 L 145.285156 151.773438 C 147.898438 151.878906 150.523438 151.898438 153.152344 151.800781 C 153.808594 151.773438 154.464844 151.734375 155.121094 151.699219 L 155.613281 151.675781 C 155.777344 151.667969 155.941406 151.652344 156.105469 151.640625 L 158.074219 151.484375 L 159.058594 151.378906 C 159.714844 151.3125 160.371094 151.246094 161.023438 151.15625 C 166.261719 150.503906 171.460938 149.34375 176.496094 147.652344 C 181.53125 145.960938 186.398438 143.722656 190.949219 140.96875 C 193.226562 139.589844 195.417969 138.082031 197.523438 136.460938 C 199.621094 134.839844 201.636719 133.113281 203.542969 131.277344 C 204.015625 130.8125 204.492188 130.355469 204.953125 129.882812 L 205.648438 129.175781 L 206.328125 128.453125 L 206.664062 128.09375 C 206.777344 127.972656 206.886719 127.851562 207 127.730469 L 207.664062 126.996094 C 207.773438 126.875 207.878906 126.75 207.988281 126.625 L 208.3125 126.25 L 208.636719 125.878906 L 208.796875 125.691406 L 208.957031 125.5 C 210.652344 123.488281 212.257812 121.40625 213.746094 119.25 C 216.277344 115.617188 218.503906 111.804688 220.488281 107.890625 L 223.988281 112.265625 L 225.488281 96.671875 " fill-opacity="1" fill-rule="nonzero"/></g></svg>